<svg viewBox="0 0 720 720" fill="none" stroke-linecap="square" stroke-miterlimit="10" xmlns="http://www.w3.org/2000/svg"><clipPath id="a"><path d="M0 0h720v720H0z"/></clipPath><g clip-path="url(#a)" fill="#000" fill-rule="evenodd"><path d="M0 0h720v720H0z" fill="none"/><path d="M0 0h720v720H0zm37.858 37.858v644.284h644.284V37.858z"/><path d="M662.362 57.634v183.842H57.638V57.634zm-22.98 22.98H80.618v137.882h558.764zm22.98 187.466v183.842H57.638V268.079zm-22.98 22.98H80.618v137.88h558.764zm22.98 187.465v183.842H57.638V478.525zm-22.98 22.98H80.618v137.882h558.764z"/><path d="M138.457 534.322v2.006q3 .099 4.55.75 1.565.653 2.055 2.414.505 1.745.505 5.447v49.708q0 3.604-.505 5.414-.49 1.794-2.006 2.397-1.5.605-4.6.8v2.006q4.404-.099 9.362-.147l9.834-.098a899 899 0 0 1 9.019-.05h6.85q5.022 0 11.432.05 6.408.048 11.514.245-.49-5.318-.604-10.275a414 414 0 0 1-.098-7.567q0-5.61.31-9.214h-2.3a38.6 38.6 0 0 1-3.016 9.28q-2.105 4.452-4.958 7.958-2.855 3.506-5.871 5.512-3.002 2.006-5.594 2.006h-3.311q-2.104 0-3.213-.457-1.092-.456-1.5-1.794-.408-1.353-.408-4.06v-51.714q0-3.702.603-5.447.605-1.762 2.349-2.413 1.76-.653 5.17-.75v-2.007q-3.1.098-7.91.196t-9.818.098q-5.415 0-10.176-.098-4.762-.097-7.665-.196m62.725 0v2.006q3 .099 4.55.75 1.566.653 2.055 2.414.506 1.745.506 5.447v49.708q0 3.604-.506 5.414-.49 1.794-2.006 2.397-1.5.605-4.599.8v2.006q2.903-.197 7.665-.245 4.762-.05 10.177-.05 4.697 0 9.263.05 4.566.048 7.47.245v-2.006q-3.018-.195-4.518-.8-1.5-.602-2.055-2.397-.555-1.81-.554-5.414v-49.708q0-3.702.505-5.447.505-1.762 2.055-2.413 1.55-.652 4.566-.75v-2.007q-2.903.098-7.469.196t-9.263.098q-5.415 0-10.177-.098-4.762-.097-7.665-.196m73.042 2.006q3.817 0 5.415 3.768 1.598 3.75 1.598 11.154 0 4.322-.799 8.073-.799 3.75-2.903 6.018-2.103 2.25-6.018 2.25h-2.707V544.94q0-5.202.995-6.898 1.01-1.713 4.42-1.713m-3.995 32.96q8.512 0 12.166 4.207 3.654 4.208 3.653 11.921 0 8.432-2.56 12.998-2.544 4.55-8.155 4.55-2.706 0-4.11-.603-1.401-.604-1.907-2.398-.507-1.81-.506-5.316v-25.36zm-28.867-34.966v2.006q3.002.099 4.55.75 1.567.653 2.055 2.414.506 1.745.506 5.447v49.708q0 3.603-.506 5.414-.489 1.794-2.005 2.397-1.5.605-4.6.8v2.005q2.903-.195 7.666-.244 4.761-.05 9.768-.05 6.508 0 11.172.148 4.664.146 7.062.146 9.329 0 16.08-2.054 6.769-2.055 10.372-6.36 3.604-4.306 3.604-11.025 0-4.11-2.805-7.958-2.805-3.865-9.018-6.573-6.198-2.707-16.521-3.196v-.212q7.91-.995 13.014-3.849 5.121-2.854 7.616-6.605 2.512-3.767 2.512-7.273 0-6.915-6.72-11.318-6.702-4.42-20.434-4.42-1.909 0-6.523.098a466 466 0 0 1-19.179 0 611 611 0 0 1-7.666-.196m103.403 2.005q5.316 0 7.469 4.355 2.153 4.354 2.153 12.28 0 4.599-.962 8.366-.946 3.75-3.605 6.018-2.642 2.25-7.763 2.25h-2.707V544.94q0-5.202.995-6.898 1.01-1.713 4.42-1.713m139.579 0q5.316 0 7.47 4.355 2.151 4.354 2.152 12.28 0 4.599-.962 8.366-.945 3.75-3.604 6.018-2.643 2.25-7.763 2.25h-2.708V544.94q0-5.202.995-6.898 1.012-1.713 4.42-1.713m-77.934 14.987 9.065 25.1h-18.702zm110.508-17.09v2.103q1.093 0 2.593 1.207 1.516 1.191 3.213 4.403l18.543 34.3v18.409q0 3.603-.506 5.414-.505 1.794-2.006 2.397-1.5.605-4.615.8v2.005q2.707-.196 7.47-.244a960 960 0 0 1 19.39 0q4.812.049 7.715.244v-2.005q-3.001-.195-4.502-.8-1.5-.602-2.055-2.397-.554-1.81-.554-5.414v-26.629l9.312-18.464q3.116-6.115 5.708-9.165 2.61-3.066 4.925-4.159v-2.005q-1.516.098-3.62.195a89 89 0 0 1-4.11.098q-3.391 0-6.36-.098-2.952-.098-6.752-.195v2.005q3.996.099 6.197 2.251 2.218 2.152 1.762 6.964-.457 4.81-4.665 13.128l-4.521 9.043-14.315-27.488q-.897-1.892 0-2.642.913-.75 3.017-.946a46 46 0 0 1 4.599-.212v-2.103q-5.006.195-10.976.407-5.952.196-11.057.196-4.012 0-7.372-.147a141 141 0 0 1-6.458-.456m-205.015.097v2.006q3 .099 4.55.75 1.565.653 2.055 2.414.505 1.745.505 5.447v49.708q0 3.603-.505 5.414-.49 1.794-2.006 2.397-1.5.605-4.6.8v2.005q2.903-.196 7.666-.244 4.762-.05 10.176-.05 4.698 0 9.264.05 4.566.048 7.469.244v-2.005q-3.017-.195-4.517-.8-1.5-.602-2.055-2.397-.555-1.81-.555-5.414v-23.044h4.518q2.61 0 4.11 1.86 1.5 1.842 2.397 5.055.913 3.196 1.5 7.306l1.517 10.013q.897 6.116 4.892 8.48 4.012 2.349 10.536 2.349 4.6 0 8.252-1.158 1.11-.345 2.166-.87v.625q1.5-.196 3.653-.244 2.154-.05 4.061-.05 3.506 0 6.459.05 2.967.049 6.67.244v-2.005q-3-.099-5.22-.897-2.2-.799-3.212-2.903-.995-2.104-.44-6.067t3.066-10.47l1.734-4.517h20.184l5.937 16.438q1.99 5.105.636 6.67-1.337 1.55-6.458 1.746v2.005q2.708-.196 7.208-.244 4.519-.05 9.622-.05 5.025 0 9.818.05 4.812.048 8.432.244v-2.005q-1.305-.099-2.92-1.55-1.598-1.45-3-4.86l-24.251-62.526a65 65 0 0 1-5.252.196q-2.853 0-5.267-.196l-22.245 57.21q-2.398 6.213-4.665 8.774-.212.24-.424.463l-.812-.822q-.702.701-1.403 1.011-.7.294-1.712.294-1.696 0-2.707-1.403-.996-1.402-1.794-5.104l-2.104-10.421q-1.207-6.215-6.573-9.41-5.098-3.053-15.026-3.662 4.347-.409 7.72-1.296 6.262-1.664 9.867-4.517 3.604-2.855 5.105-6.36 1.5-3.507 1.5-7.225 0-5.904-3.31-9.753-3.296-3.864-9.965-5.773-6.654-1.908-16.88-1.908-1.908 0-6.523.098a466 466 0 0 1-19.179 0q-4.762-.097-7.665-.196m139.579 0v2.006q3 .099 4.55.75 1.566.653 2.055 2.414.505 1.745.505 5.447v49.708q0 3.603-.505 5.414-.49 1.794-2.006 2.397-1.5.605-4.6.8v2.005q2.904-.196 7.666-.244 4.762-.05 10.177-.05 4.696 0 9.263.05 4.566.048 7.47.244v-2.005q-3.018-.195-4.518-.8-1.5-.602-2.055-2.397-.555-1.81-.555-5.414v-23.044h4.518q2.61 0 4.11 1.86 1.5 1.842 2.397 5.055.913 3.196 1.5 7.306l1.517 10.013q.897 6.116 4.893 8.48 4.011 2.349 10.535 2.349 4.6 0 8.252-1.158 3.67-1.142 6.768-4.256l-1.288-1.305q-.701.701-1.402 1.011-.702.294-1.713.294-1.696 0-2.707-1.403-.995-1.402-1.794-5.104l-2.104-10.421q-1.206-6.215-6.572-9.41-5.1-3.053-15.027-3.662 4.348-.409 7.72-1.296 6.262-1.664 9.867-4.517 3.605-2.855 5.105-6.36 1.5-3.507 1.5-7.225 0-5.904-3.31-9.753-3.295-3.864-9.965-5.773-6.654-1.908-16.88-1.908-1.908 0-6.523.098-4.599.098-9.606.098-4.81 0-9.573-.098-4.763-.097-7.665-.196M138.46 360.001l221.543-9.606 221.543 9.606-221.543 9.607zm181.16-245.916q-4.697.098-10.52.196-5.805.098-11.628.098h-21.038q-5.806 0-11.628-.098-5.806-.097-10.617-.196.407 5.92.554 11.433.147 5.495.147 8.415 0 2.104-.049 4.011-.049 1.892-.244 3.197h2.3q2.412-9.524 5.61-14.873 3.212-5.366 6.865-7.616 3.654-2.267 7.274-2.267h.098v57.324q0 4.11-.865 6.115-.847 1.99-3.261 2.593-2.397.603-6.997.604v2.006q3.409-.099 8.905-.196 5.512-.098 11.726-.098 6.523 0 12.476.098 5.97.097 9.475.196v-2.006q-4.616 0-7.029-.604-2.397-.603-3.245-2.593-.849-2.006-.848-6.115v-57.324h.098q3.603 0 7.257 2.267 3.669 2.25 6.915 7.665 3.261 5.397 5.561 14.824h2.316a226 226 0 0 1-.212-3.197 79 79 0 0 1-.098-4.011q0-2.92.147-8.415.162-5.513.554-11.433m5.116 0v2.006q3 .099 4.55.75 1.564.653 2.055 2.414.505 1.745.505 5.447v49.708q0 3.604-.505 5.414-.49 1.794-2.006 2.397-1.5.605-4.6.8v2.006q2.903-.196 7.666-.245 4.762-.05 10.176-.049 4.698 0 9.264.049t7.469.245v-2.006q-3.017-.195-4.518-.8-1.5-.602-2.054-2.397-.555-1.81-.555-5.414v-24.055h22.555v24.055q0 3.604-.506 5.414-.505 1.794-2.006 2.397-1.5.605-4.599.8v2.006q3.099-.196 7.959-.245a971 971 0 0 1 19.375 0q4.517.049 7.224.245v-2.006q-3-.195-4.5-.8-1.501-.602-2.056-2.397-.555-1.81-.554-5.414v-49.708q0-3.702.505-5.447.506-1.761 2.055-2.413 1.55-.653 4.55-.75v-2.007q-2.707.098-7.224.196-4.502.098-9.606.098-4.91 0-9.769-.098-4.86-.097-7.959-.196v2.006q3.001.099 4.55.75 1.55.653 2.055 2.414.506 1.745.506 5.447v23.647h-22.555v-23.647q0-3.702.506-5.447.505-1.761 2.055-2.413 1.549-.653 4.566-.75v-2.007q-2.902.098-7.47.196a432 432 0 0 1-9.263.098q-5.415 0-10.176-.098-4.763-.097-7.665-.196m83.065 0v2.006q3.002.099 4.55.75 1.567.653 2.056 2.414.505 1.745.505 5.447v49.708q0 3.604-.505 5.414-.49 1.794-2.006 2.397-1.5.605-4.6.8v2.006q4.404-.099 9.362-.147l9.834-.098q4.86-.05 9.019-.049h6.85q5.022 0 11.432.049 6.409.049 11.514.245a133 133 0 0 1-.604-9.671q-.098-4.665-.098-7.16 0-5.61.31-9.214h-2.3q-1.614 9.018-4.729 14.221-3.098 5.202-6.752 7.371-3.652 2.153-6.963 2.153h-3.311q-2.593 0-3.898-.457-1.305-.456-1.761-1.794-.457-1.353-.457-4.06v-26.06h1.011q3.8 0 6.703 1.76 2.92 1.746 4.762 4.762 1.86 3 2.463 6.703h2.3q-.392-5.707-.506-8.709a171 171 0 0 1-.098-5.512q0-2.51-.049-5.512-.048-3.017.359-8.725h-2.3q-.407 2.202-1.565 4.518a20 20 0 0 1-2.903 4.305 13.8 13.8 0 0 1-4.061 3.213q-2.3 1.19-5.105 1.19h-1.01v-25.653q0-2.805.456-4.093.456-1.305 1.761-1.761 1.305-.457 3.898-.457h1.305q4.11 0 7.86 1.957 3.768 1.957 6.573 6.719t4.012 13.08h2.3q-.099-1.305-.196-3.214a78 78 0 0 1-.098-4.011q0-2.495.147-7.16.146-4.665.554-9.67-4.615.195-10.486.244-5.856.05-10.47.049h-6.85q-4.16 0-9.019-.049l-9.834-.098a760 760 0 0 1-9.361-.147M93.228 95.714h29.229v107.685H93.228zm504.318 0h29.228v107.685h-29.228zm-.003 420.89h29.229v107.685h-29.229zm-504.315 0h29.229v107.685H93.228zm0-210.447h29.229v107.686H93.228zm504.321.002h29.228v107.685h-29.228z"/></g></svg>